<svg width="200" height="200" viewBox="0 0 200 200" fill="none" xmlns="http://www.w3.org/2000/svg">
<path d="M0 100C0 44.7715 44.7715 0 100 0V0C155.228 0 200 44.7715 200 100V100C200 155.228 155.228 200 100 200V200C44.7715 200 0 155.228 0 100V100Z" fill="#FFFCE1"/>
<path d="M153.5 58C153.5 85.6142 176.614 101 149 101C121.386 101 40.5 122.114 40.5 94.5C40.5 66.8858 121.386 1 149 1C176.614 1 153.5 30.3858 153.5 58Z" fill="#9A0C16" fill-opacity="0.1"/>
<path d="M78.8 87C77.5333 84.6667 75.7 82.9 73.3 81.7C70.9667 80.4333 68.2 79.8 65 79.8C59.4667 79.8 55.0333 81.6333 51.7 85.3C48.3667 88.9 46.7 93.7333 46.7 99.8C46.7 106.267 48.4333 111.333 51.9 115C55.4333 118.6 60.2667 120.4 66.4 120.4C70.6 120.4 74.1333 119.333 77 117.2C79.9333 115.067 82.0667 112 83.4 108H61.7V95.4H98.9V111.3C97.6333 115.567 95.4667 119.533 92.4 123.2C89.4 126.867 85.5667 129.833 80.9 132.1C76.2333 134.367 70.9667 135.5 65.1 135.5C58.1667 135.5 51.9667 134 46.5 131C41.1 127.933 36.8667 123.7 33.8 118.3C30.8 112.9 29.3 106.733 29.3 99.8C29.3 92.8667 30.8 86.7 33.8 81.3C36.8667 75.8333 41.1 71.6 46.5 68.6C51.9 65.5333 58.0667 64 65 64C73.4 64 80.4667 66.0333 86.2 70.1C92 74.1667 95.8333 79.8 97.7 87H78.8Z" fill="#0E100F"/>
<path d="M106.9 121.3C109.167 119.5 110.2 118.667 110 118.8C116.533 113.4 121.667 108.967 125.4 105.5C129.2 102.033 132.4 98.4 135 94.6C137.6 90.8 138.9 87.1 138.9 83.5C138.9 80.7667 138.267 78.6333 137 77.1C135.733 75.5667 133.833 74.8 131.3 74.8C128.767 74.8 126.767 75.7667 125.3 77.7C123.9 79.5667 123.2 82.2333 123.2 85.7H106.7C106.833 80.0333 108.033 75.3 110.3 71.5C112.633 67.7 115.667 64.9 119.4 63.1C123.2 61.3 127.4 60.4 132 60.4C139.933 60.4 145.9 62.4333 149.9 66.5C153.967 70.5667 156 75.8667 156 82.4C156 89.5333 153.567 96.1667 148.7 102.3C143.833 108.367 137.633 114.3 130.1 120.1H157.1V134H106.9V121.3Z" fill="#9A0C16"/>
<path d="M59 139C59 152.807 47.8071 164 34 164C20.1929 164 9 152.807 9 139C9 125.193 20.1929 133 34 133C47.8071 133 59 125.193 59 139Z" fill="#9A0C16" fill-opacity="0.1"/>
<path d="M170.5 129C170.5 142.807 159.307 154 145.5 154C131.693 154 120.5 142.807 120.5 129C120.5 115.193 131.693 123 145.5 123C159.307 123 170.5 115.193 170.5 129Z" fill="#9A0C16" fill-opacity="0.1"/>
<circle cx="94" cy="168" r="25" fill="#9A0C16" fill-opacity="0.1"/>
</svg>
